<svg xmlns="http://www.w3.org/2000/svg" xmlns:xlink="http://www.w3.org/1999/xlink" id="Layer_1" x="0" y="0" enable-background="new 0 0 1543.2 1000" version="1.1" viewBox="0 0 1543.2 1000" xml:space="preserve"><style type="text/css">.st0,.st1{opacity:.12;clip-path:url(#SVGID_2_);fill:#822ff7}.st1{opacity:8.000000e-02}</style><g><defs><rect id="SVGID_1_" width="1543.2" height="1000"/></defs><clipPath id="SVGID_2_"><use overflow="visible" xlink:href="#SVGID_1_"/></clipPath><path d="M-2.3,650.2l0,422.8l409.4,237.9c0,0,409.5-238,409.5-238l0-422.7L407.2,412.3l0,0L-2.3,650.2" class="st0"/><polyline points="305.1 772.2 305.1 1069.5 593 1236.8 881 1069.5 881 772.2 593.1 604.9 593 604.9 305.1 772.2" class="st1"/><path d="M584.1,784.7l0,504.2l488.2,283.7c0,0,488.3-283.8,488.3-283.8l0-504L1072.4,501l0,0L584.1,784.7" class="st1"/><path d="M838.4,423.4l0,365.3l353.7,205.5c0,0,353.8-205.6,353.8-205.6l0-365.2l-353.8-205.6l0,0L838.4,423.4" class="st1"/></g></svg>