<svg xmlns="http://www.w3.org/2000/svg" xmlns:xlink="http://www.w3.org/1999/xlink" id="Layer_1" x="0" y="0" enable-background="new 0 0 806 744" version="1.1" viewBox="0 0 806 744" xml:space="preserve"><style type="text/css">.st0{fill:none;stroke:#e6e7e8;stroke-width:2;stroke-miterlimit:10}.st1{fill:url(#SVGID_1_)}.st2{fill:url(#SVGID_2_)}.st3,.st4{fill:#fff;stroke:#2a2733;stroke-width:1.5;stroke-miterlimit:10}.st4{fill:none}.st5{fill:#fff}.st6{fill:url(#SVGID_3_)}.st7{fill:url(#SVGID_4_)}.st8{fill:url(#SVGID_5_)}.st9{fill:url(#SVGID_6_)}.st10{fill:url(#SVGID_7_)}.st11{fill:url(#SVGID_8_)}.st12{fill:url(#SVGID_9_)}.st13{fill:url(#SVGID_10_)}.st14{fill:url(#SVGID_11_)}.st15{fill:url(#SVGID_12_)}.st16{fill:url(#SVGID_13_)}.st17{fill:url(#SVGID_14_)}.st18{fill:url(#SVGID_15_)}.st19{fill:url(#SVGID_16_)}.st20{fill:url(#SVGID_17_)}.st21{fill:url(#SVGID_18_)}.st22{fill:url(#SVGID_19_)}.st23{fill:url(#SVGID_20_)}.st24{fill:url(#SVGID_21_)}</style><g><polygon points="253.1 449.1 253.1 387 300.7 363.1 348.2 387 348.2 449.1 300.7 472.9" class="st0"/><polygon points="401.8 472.9 354.2 449.1 354.2 387 401.8 363.1 449.4 387 449.4 449.1" class="st0"/><polygon points="661.7 110.9 614.1 87.1 614.1 25 661.7 1.1 709.2 25 709.2 87.1" class="st0"/><polygon points="250.7 562.9 203.1 539.1 203.1 477 250.7 453.1 298.2 477 298.2 539.1" class="st0"/><polygon points="451.7 562.9 404.1 539.1 404.1 477 451.7 453.1 499.2 477 499.2 539.1" class="st0"/><polygon points="153.1 629.1 153.1 567 167.5 559.7 200.7 543.1 248.2 567 248.2 629.1 200.7 652.9" class="st0"/><polygon points="300.7 652.9 253.1 629.1 253.1 567 300.7 543.1 348.2 567 348.2 629.1" class="st0"/><polygon points="150.7 742.9 103.1 719.1 103.1 657 150.7 633.1 198.2 657 198.2 719.1" class="st0"/><polygon points="50.6 742.9 3 719.1 3 657 50.6 633.1 98.1 657 98.1 719.1" class="st0"/><polygon points="149.7 563.9 102.1 540.1 102.1 478 149.7 454.1 197.2 478 197.2 540.1" class="st0"/><polygon points="250.7 742.9 203.1 719.1 203.1 657 250.7 633.1 298.2 657 298.2 719.1" class="st0"/></g><linearGradient id="SVGID_1_" x1="117.35" x2="117.35" y1="-301.125" y2="-280.125" gradientTransform="matrix(1 0 0 1 225.3 804)" gradientUnits="userSpaceOnUse"><stop offset="0" stop-color="#FFF"/><stop offset="1" stop-color="#FCFCFC" stop-opacity="0"/></linearGradient><rect width="342.1" height="36.5" x="171.6" y="497.9" class="st1"/><linearGradient id="SVGID_2_" x1="-23.875" x2="-23.875" y1="-311.825" y2="-290.825" gradientTransform="matrix(4.489659e-11 1 -1 4.489659e-11 -163.225 461.175)" gradientUnits="userSpaceOnUse"><stop offset="0" stop-color="#FFF"/><stop offset="1" stop-color="#FCFCFC" stop-opacity="0"/></linearGradient><polygon points="117.1 487.5 117.1 387.1 153.6 387.1 153.6 487.5" class="st2"/><rect width="440.8" height="324.6" x="152.5" y="173.3" class="st3"/><line x1="152.5" x2="593.3" y1="200.2" y2="200.2" class="st4"/><circle cx="171.6" cy="187.1" r="5.6" class="st3"/><circle cx="189.7" cy="187.1" r="5.6" class="st3"/><circle cx="207.8" cy="187.1" r="5.6" class="st3"/><rect width="13.9" height="201.3" x="588.8" y="243.7" class="st5"/><g><linearGradient id="SVGID_3_" x1="376.213" x2="848.994" y1="4507.662" y2="4507.662" gradientTransform="matrix(1 0 0 1 0 -4253.9614)" gradientUnits="userSpaceOnUse"><stop offset="0" stop-color="#AA43FF"/><stop offset=".004" stop-color="#A943FF"/><stop offset=".135" stop-color="#983AFB"/><stop offset=".293" stop-color="#8B34F9"/><stop offset=".506" stop-color="#8430F7"/><stop offset="1" stop-color="#822FF7"/></linearGradient><rect width="179.8" height="5.8" x="183.8" y="250.8" class="st6"/><linearGradient id="SVGID_4_" x1="376.213" x2="848.994" y1="4507.662" y2="4507.662" gradientTransform="matrix(1 0 0 1 0 -4253.9614)" gradientUnits="userSpaceOnUse"><stop offset="0" stop-color="#AA43FF"/><stop offset=".004" stop-color="#A943FF"/><stop offset=".135" stop-color="#983AFB"/><stop offset=".293" stop-color="#8B34F9"/><stop offset=".506" stop-color="#8430F7"/><stop offset="1" stop-color="#822FF7"/></linearGradient><rect width="232.3" height="5.8" x="388.4" y="250.8" class="st7"/><linearGradient id="SVGID_5_" x1="376.213" x2="848.994" y1="4539.262" y2="4539.262" gradientTransform="matrix(1 0 0 1 0 -4253.9614)" gradientUnits="userSpaceOnUse"><stop offset="0" stop-color="#AA43FF"/><stop offset=".004" stop-color="#A943FF"/><stop offset=".135" stop-color="#983AFB"/><stop offset=".293" stop-color="#8B34F9"/><stop offset=".506" stop-color="#8430F7"/><stop offset="1" stop-color="#822FF7"/></linearGradient><rect width="77.7" height="5.8" x="183.8" y="282.4" class="st8"/><linearGradient id="SVGID_6_" x1="376.213" x2="848.994" y1="4539.262" y2="4539.262" gradientTransform="matrix(1 0 0 1 0 -4253.9614)" gradientUnits="userSpaceOnUse"><stop offset="0" stop-color="#AA43FF"/><stop offset=".004" stop-color="#A943FF"/><stop offset=".135" stop-color="#983AFB"/><stop offset=".293" stop-color="#8B34F9"/><stop offset=".506" stop-color="#8430F7"/><stop offset="1" stop-color="#822FF7"/></linearGradient><rect width="191.5" height="5.8" x="274.9" y="282.4" class="st9"/><linearGradient id="SVGID_7_" x1="376.213" x2="848.994" y1="4539.262" y2="4539.262" gradientTransform="matrix(1 0 0 1 0 -4253.9614)" gradientUnits="userSpaceOnUse"><stop offset="0" stop-color="#AA43FF"/><stop offset=".004" stop-color="#A943FF"/><stop offset=".135" stop-color="#983AFB"/><stop offset=".293" stop-color="#8B34F9"/><stop offset=".506" stop-color="#8430F7"/><stop offset="1" stop-color="#822FF7"/></linearGradient><rect width="214.1" height="5.8" x="484.5" y="282.4" class="st10"/><linearGradient id="SVGID_8_" x1="376.213" x2="848.994" y1="4569.361" y2="4569.361" gradientTransform="matrix(1 0 0 1 0 -4253.9614)" gradientUnits="userSpaceOnUse"><stop offset="0" stop-color="#AA43FF"/><stop offset=".004" stop-color="#A943FF"/><stop offset=".135" stop-color="#983AFB"/><stop offset=".293" stop-color="#8B34F9"/><stop offset=".506" stop-color="#8430F7"/><stop offset="1" stop-color="#822FF7"/></linearGradient><rect width="163.6" height="5.8" x="183.8" y="312.5" class="st11"/><linearGradient id="SVGID_9_" x1="376.213" x2="848.994" y1="4569.361" y2="4569.361" gradientTransform="matrix(1 0 0 1 0 -4253.9614)" gradientUnits="userSpaceOnUse"><stop offset="0" stop-color="#AA43FF"/><stop offset=".004" stop-color="#A943FF"/><stop offset=".135" stop-color="#983AFB"/><stop offset=".293" stop-color="#8B34F9"/><stop offset=".506" stop-color="#8430F7"/><stop offset="1" stop-color="#822FF7"/></linearGradient><rect width="61.2" height="5.8" x="365.9" y="312.5" class="st12"/><linearGradient id="SVGID_10_" x1="376.213" x2="848.994" y1="4569.361" y2="4569.361" gradientTransform="matrix(1 0 0 1 0 -4253.9614)" gradientUnits="userSpaceOnUse"><stop offset="0" stop-color="#AA43FF"/><stop offset=".004" stop-color="#A943FF"/><stop offset=".135" stop-color="#983AFB"/><stop offset=".293" stop-color="#8B34F9"/><stop offset=".506" stop-color="#8430F7"/><stop offset="1" stop-color="#822FF7"/></linearGradient><rect width="362.5" height="5.8" x="443.5" y="312.5" class="st13"/><linearGradient id="SVGID_11_" x1="376.213" x2="848.994" y1="4599.461" y2="4599.461" gradientTransform="matrix(1 0 0 1 0 -4253.9614)" gradientUnits="userSpaceOnUse"><stop offset="0" stop-color="#AA43FF"/><stop offset=".004" stop-color="#A943FF"/><stop offset=".135" stop-color="#983AFB"/><stop offset=".293" stop-color="#8B34F9"/><stop offset=".506" stop-color="#8430F7"/><stop offset="1" stop-color="#822FF7"/></linearGradient><rect width="183.1" height="5.8" x="183.8" y="342.6" class="st14"/><linearGradient id="SVGID_12_" x1="376.213" x2="848.994" y1="4599.461" y2="4599.461" gradientTransform="matrix(1 0 0 1 0 -4253.9614)" gradientUnits="userSpaceOnUse"><stop offset="0" stop-color="#AA43FF"/><stop offset=".004" stop-color="#A943FF"/><stop offset=".135" stop-color="#983AFB"/><stop offset=".293" stop-color="#8B34F9"/><stop offset=".506" stop-color="#8430F7"/><stop offset="1" stop-color="#822FF7"/></linearGradient><rect width="295.7" height="5.8" x="384.5" y="342.6" class="st15"/><linearGradient id="SVGID_13_" x1="376.213" x2="848.994" y1="4629.561" y2="4629.561" gradientTransform="matrix(1 0 0 1 0 -4253.9614)" gradientUnits="userSpaceOnUse"><stop offset="0" stop-color="#AA43FF"/><stop offset=".004" stop-color="#A943FF"/><stop offset=".135" stop-color="#983AFB"/><stop offset=".293" stop-color="#8B34F9"/><stop offset=".506" stop-color="#8430F7"/><stop offset="1" stop-color="#822FF7"/></linearGradient><rect width="91.3" height="5.8" x="183.8" y="372.7" class="st16"/><linearGradient id="SVGID_14_" x1="376.213" x2="848.994" y1="4629.561" y2="4629.561" gradientTransform="matrix(1 0 0 1 0 -4253.9614)" gradientUnits="userSpaceOnUse"><stop offset="0" stop-color="#AA43FF"/><stop offset=".004" stop-color="#A943FF"/><stop offset=".135" stop-color="#983AFB"/><stop offset=".293" stop-color="#8B34F9"/><stop offset=".506" stop-color="#8430F7"/><stop offset="1" stop-color="#822FF7"/></linearGradient><rect width="154.8" height="5.8" x="301" y="372.7" class="st17"/><linearGradient id="SVGID_15_" x1="376.213" x2="848.994" y1="4629.561" y2="4629.561" gradientTransform="matrix(1 0 0 1 0 -4253.9614)" gradientUnits="userSpaceOnUse"><stop offset="0" stop-color="#AA43FF"/><stop offset=".004" stop-color="#A943FF"/><stop offset=".135" stop-color="#983AFB"/><stop offset=".293" stop-color="#8B34F9"/><stop offset=".506" stop-color="#8430F7"/><stop offset="1" stop-color="#822FF7"/></linearGradient><rect width="253.4" height="5.8" x="478.6" y="372.7" class="st18"/><linearGradient id="SVGID_16_" x1="376.213" x2="848.994" y1="4659.662" y2="4659.662" gradientTransform="matrix(1 0 0 1 0 -4253.9614)" gradientUnits="userSpaceOnUse"><stop offset="0" stop-color="#AA43FF"/><stop offset=".004" stop-color="#A943FF"/><stop offset=".135" stop-color="#983AFB"/><stop offset=".293" stop-color="#8B34F9"/><stop offset=".506" stop-color="#8430F7"/><stop offset="1" stop-color="#822FF7"/></linearGradient><rect width="141.7" height="5.8" x="183.8" y="402.8" class="st19"/><linearGradient id="SVGID_17_" x1="376.213" x2="848.994" y1="4659.662" y2="4659.662" gradientTransform="matrix(1 0 0 1 0 -4253.9614)" gradientUnits="userSpaceOnUse"><stop offset="0" stop-color="#AA43FF"/><stop offset=".004" stop-color="#A943FF"/><stop offset=".135" stop-color="#983AFB"/><stop offset=".293" stop-color="#8B34F9"/><stop offset=".506" stop-color="#8430F7"/><stop offset="1" stop-color="#822FF7"/></linearGradient><rect width="171.4" height="5.8" x="342.3" y="402.8" class="st20"/><linearGradient id="SVGID_18_" x1="3.513" x2="1590.253" y1="4659.662" y2="4659.662" gradientTransform="matrix(1 0 0 1 0 -4253.9614)" gradientUnits="userSpaceOnUse"><stop offset="0" stop-color="#AA43FF"/><stop offset=".004" stop-color="#A943FF"/><stop offset=".135" stop-color="#983AFB"/><stop offset=".293" stop-color="#8B34F9"/><stop offset=".506" stop-color="#8430F7"/><stop offset="1" stop-color="#822FF7"/></linearGradient><rect width="108.8" height="5.8" x="534.4" y="402.8" class="st21"/><linearGradient id="SVGID_19_" x1="376.213" x2="848.994" y1="4691.262" y2="4691.262" gradientTransform="matrix(1 0 0 1 0 -4253.9614)" gradientUnits="userSpaceOnUse"><stop offset="0" stop-color="#AA43FF"/><stop offset=".004" stop-color="#A943FF"/><stop offset=".135" stop-color="#983AFB"/><stop offset=".293" stop-color="#8B34F9"/><stop offset=".506" stop-color="#8430F7"/><stop offset="1" stop-color="#822FF7"/></linearGradient><rect width="91.3" height="5.8" x="183.8" y="434.4" class="st22"/><linearGradient id="SVGID_20_" x1="376.213" x2="848.994" y1="4691.262" y2="4691.262" gradientTransform="matrix(1 0 0 1 0 -4253.9614)" gradientUnits="userSpaceOnUse"><stop offset="0" stop-color="#AA43FF"/><stop offset=".004" stop-color="#A943FF"/><stop offset=".135" stop-color="#983AFB"/><stop offset=".293" stop-color="#8B34F9"/><stop offset=".506" stop-color="#8430F7"/><stop offset="1" stop-color="#822FF7"/></linearGradient><rect width="102.5" height="5.8" x="301.3" y="434.4" class="st23"/><linearGradient id="SVGID_21_" x1="376.213" x2="848.994" y1="4691.262" y2="4691.262" gradientTransform="matrix(1 0 0 1 0 -4253.9614)" gradientUnits="userSpaceOnUse"><stop offset="0" stop-color="#AA43FF"/><stop offset=".004" stop-color="#A943FF"/><stop offset=".135" stop-color="#983AFB"/><stop offset=".293" stop-color="#8B34F9"/><stop offset=".506" stop-color="#8430F7"/><stop offset="1" stop-color="#822FF7"/></linearGradient><rect width="233.4" height="5.8" x="424.3" y="434.4" class="st24"/></g></svg>