<svg xmlns="http://www.w3.org/2000/svg" xmlns:xlink="http://www.w3.org/1999/xlink" id="Layer_1" x="0" y="0" enable-background="new 0 0 80.5 38.8" version="1.1" viewBox="0 0 80.5 38.8" xml:space="preserve"><style type="text/css">.st0{clip-path:url(#SVGID_2_)}.st1{clip-path:url(#SVGID_4_);fill:#fefefe}.st2{clip-path:url(#SVGID_6_)}.st3{clip-path:url(#SVGID_8_);fill:#fefefe}.st4{clip-path:url(#SVGID_10_)}.st5{clip-path:url(#SVGID_12_);fill:#fefefe}</style><g><defs><path id="SVGID_1_" d="M80,12.1c-0.1,0-10.7,2.7-23,5.7l0.6-1.6h-6l2-4.9h5L60,7.6h-5l1.7-4.2H62L63.4,0H53h0h-5.4l-5.4,6l2.5-6 h-5.2l-8.1,20.1h5.2l3.5-8.4l0.2,8.4l7.4,0C33.6,23.6,20.2,27,20.2,27c-7.5,2-16.1-2.3-9.9-13.8c-7.2,7.8-14,18.2-8,23 c5.8,4.6,13.1,1.9,18.1,0.1c5-1.8,59.8-23.8,59.8-23.8C80.7,12.2,80.6,11.9,80,12.1z M45,8.3l7.8-7.9l-7.5,18.4L45,8.3z"/></defs><clipPath id="SVGID_2_"><use overflow="visible" xlink:href="#SVGID_1_"/></clipPath><g class="st0"><defs><rect id="SVGID_3_" width="1420" height="8127" x="-441" y="-1294.1"/></defs><clipPath id="SVGID_4_"><use overflow="visible" xlink:href="#SVGID_3_"/></clipPath><rect width="90.5" height="48.8" x="-5" y="-5" class="st1"/></g></g><g><defs><polygon id="SVGID_5_" points="19.7 11.2 19.1 20.1 24.6 20.1 32.8 0 27.6 0 24 9 24.6 0 19.1 0 10.9 20.1 16.1 20.1"/></defs><clipPath id="SVGID_6_"><use overflow="visible" xlink:href="#SVGID_5_"/></clipPath><g class="st2"><defs><rect id="SVGID_7_" width="1420" height="8127" x="-441" y="-1294.1"/></defs><clipPath id="SVGID_8_"><use overflow="visible" xlink:href="#SVGID_7_"/></clipPath><rect width="31.9" height="30.1" x="5.9" y="-5" class="st3"/></g></g><g><defs><polygon id="SVGID_9_" points="30.4 20.1 38.6 0 33.5 0 25.3 20.1"/></defs><clipPath id="SVGID_10_"><use overflow="visible" xlink:href="#SVGID_9_"/></clipPath><g class="st4"><defs><rect id="SVGID_11_" width="1420" height="8127" x="-441" y="-1294.1"/></defs><clipPath id="SVGID_12_"><use overflow="visible" xlink:href="#SVGID_11_"/></clipPath><rect width="23.4" height="30.1" x="20.3" y="-5" class="st5"/></g></g></svg>