<svg xmlns="http://www.w3.org/2000/svg" xmlns:xlink="http://www.w3.org/1999/xlink" id="Layer_1" x="0" y="0" enable-background="new 0 0 52.8 52.9" version="1.1" viewBox="0 0 52.8 52.9" xml:space="preserve"><style type="text/css">.st0{clip-path:url(#SVGID_2_)}.st1{clip-path:url(#SVGID_4_);fill:#fefefe}</style><g><defs><path id="SVGID_1_" d="M0,26.5C0,11.8,11.8,0,26.4,0C41,0,52.8,11.8,52.8,26.5c0,14.6-11.8,26.5-26.4,26.5 C11.8,52.9,0,41.1,0,26.5 M26.4,44c9.7,0,17.5-7.9,17.5-17.6c0-9.7-7.9-17.6-17.5-17.6S8.9,16.8,8.9,26.5 C8.9,36.2,16.7,44,26.4,44 M26.4,35.4c5,0,9.1-4.1,9.1-9.1c0-5-4.1-9.1-9.1-9.1c-5,0-9.1,4.1-9.1,9.1 C17.3,31.3,21.4,35.4,26.4,35.4"/></defs><clipPath id="SVGID_2_"><use overflow="visible" xlink:href="#SVGID_1_"/></clipPath><g class="st0"><defs><rect id="SVGID_3_" width="1420" height="8127" x="-900" y="-1288"/></defs><clipPath id="SVGID_4_"><use overflow="visible" xlink:href="#SVGID_3_"/></clipPath><rect width="62.8" height="62.9" x="-5" y="-5" class="st1"/></g></g></svg>